<svg preserveAspectRatio="none" width="100%" height="100%" overflow="visible" style="display: block;" viewBox="0 0 19.6078 19.6078" fill="none" xmlns="http://www.w3.org/2000/svg">
<g id="tabler:brand-youtube-filled">
<path id="Vector" d="M14.7059 2.45101C15.2423 2.45101 15.7735 2.55667 16.2691 2.76196C16.7648 2.96725 17.2151 3.26815 17.5944 3.64747C17.9737 4.0268 18.2746 4.47712 18.4799 4.97273C18.6852 5.46834 18.7909 5.99954 18.7909 6.53598V13.0719C18.7909 13.6084 18.6852 14.1396 18.4799 14.6352C18.2746 15.1308 17.9737 15.5811 17.5944 15.9604C17.2151 16.3398 16.7648 16.6407 16.2691 16.8459C15.7735 17.0512 15.2423 17.1569 14.7059 17.1569H4.90197C4.36552 17.1569 3.83433 17.0512 3.33872 16.8459C2.84311 16.6407 2.39279 16.3398 2.01346 15.9604C1.24738 15.1944 0.817003 14.1553 0.817003 13.0719V6.53598C0.817003 5.45258 1.24738 4.41355 2.01346 3.64747C2.77954 2.88139 3.81857 2.45101 4.90197 2.45101H14.7059ZM7.35295 7.35297V12.2549C7.35306 12.3994 7.39149 12.5413 7.46432 12.6661C7.53714 12.7909 7.64175 12.8941 7.76749 12.9653C7.89322 13.0365 8.03559 13.073 8.18006 13.0712C8.32453 13.0694 8.46594 13.0294 8.58988 12.9551L12.6748 10.5041C12.7956 10.4315 12.8956 10.3288 12.965 10.2061C13.0344 10.0835 13.0708 9.94491 13.0708 9.80396C13.0708 9.663 13.0344 9.52445 12.965 9.40176C12.8956 9.27908 12.7956 9.17643 12.6748 9.10379L8.58988 6.65281C8.46594 6.57855 8.32453 6.53848 8.18006 6.53669C8.03559 6.5349 7.89322 6.57146 7.76749 6.64263C7.64175 6.7138 7.53714 6.81705 7.46432 6.94184C7.39149 7.06662 7.35306 7.20849 7.35295 7.35297Z" fill="var(--fill-0, white)"/>
</g>
</svg>
